<mxfile host="app.diagrams.net" modified="2023-04-12T10:14:35.465Z" agent="Mozilla/5.0 (Macintosh; Intel Mac OS X 10_15_7) AppleWebKit/537.36 (KHTML, like Gecko) Chrome/111.0.0.0 Safari/537.36" etag="DfYvIFU-QRTnyCmIVnqB" version="21.1.7" type="github">
  <diagram name="Страница 1" id="MLNFTQiBZzPMPvmRvN_a">
    <mxGraphModel dx="830" dy="470" grid="1" gridSize="10" guides="1" tooltips="1" connect="1" arrows="1" fold="1" page="1" pageScale="1" pageWidth="827" pageHeight="1169" math="0" shadow="0">
      <root>
        <mxCell id="0" />
        <mxCell id="1" parent="0" />
        <mxCell id="IGYyDffDc0GSXXD-Tj02-1" value="Product" style="swimlane;whiteSpace=wrap;html=1;startSize=20;" vertex="1" parent="1">
          <mxGeometry x="80" y="20" width="200" height="130" as="geometry" />
        </mxCell>
        <mxCell id="IGYyDffDc0GSXXD-Tj02-3" value="&lt;span style=&quot;white-space: pre;&quot;&gt; &lt;/span&gt;&lt;span style=&quot;white-space: pre;&quot;&gt; &lt;/span&gt;FK: Categoryid" style="text;html=1;align=center;verticalAlign=middle;resizable=0;points=[];autosize=1;strokeColor=none;fillColor=none;" vertex="1" parent="IGYyDffDc0GSXXD-Tj02-1">
          <mxGeometry x="-50" y="65" width="160" height="30" as="geometry" />
        </mxCell>
        <mxCell id="IGYyDffDc0GSXXD-Tj02-2" value="PK: id" style="text;html=1;align=center;verticalAlign=middle;resizable=0;points=[];autosize=1;strokeColor=none;fillColor=none;" vertex="1" parent="IGYyDffDc0GSXXD-Tj02-1">
          <mxGeometry y="35" width="60" height="30" as="geometry" />
        </mxCell>
        <mxCell id="IGYyDffDc0GSXXD-Tj02-4" value="&lt;span style=&quot;white-space: pre;&quot;&gt; &lt;/span&gt;&lt;span style=&quot;white-space: pre;&quot;&gt; &lt;/span&gt;FK: Author ID" style="text;html=1;align=center;verticalAlign=middle;resizable=0;points=[];autosize=1;strokeColor=none;fillColor=none;" vertex="1" parent="IGYyDffDc0GSXXD-Tj02-1">
          <mxGeometry x="-50" y="95" width="150" height="30" as="geometry" />
        </mxCell>
        <mxCell id="IGYyDffDc0GSXXD-Tj02-5" value="Author" style="swimlane;whiteSpace=wrap;html=1;startSize=20;" vertex="1" parent="1">
          <mxGeometry x="420" y="80" width="200" height="70" as="geometry" />
        </mxCell>
        <mxCell id="IGYyDffDc0GSXXD-Tj02-7" value="PK: id" style="text;html=1;align=center;verticalAlign=middle;resizable=0;points=[];autosize=1;strokeColor=none;fillColor=none;" vertex="1" parent="IGYyDffDc0GSXXD-Tj02-5">
          <mxGeometry y="35" width="60" height="30" as="geometry" />
        </mxCell>
        <mxCell id="IGYyDffDc0GSXXD-Tj02-9" value="Category" style="swimlane;whiteSpace=wrap;html=1;startSize=20;" vertex="1" parent="1">
          <mxGeometry x="80" y="170" width="200" height="90" as="geometry" />
        </mxCell>
        <mxCell id="IGYyDffDc0GSXXD-Tj02-10" value="PK: id" style="text;html=1;align=center;verticalAlign=middle;resizable=0;points=[];autosize=1;strokeColor=none;fillColor=none;" vertex="1" parent="IGYyDffDc0GSXXD-Tj02-9">
          <mxGeometry y="35" width="60" height="30" as="geometry" />
        </mxCell>
        <mxCell id="IGYyDffDc0GSXXD-Tj02-11" value="&lt;span style=&quot;white-space: pre;&quot;&gt; &lt;/span&gt;name" style="text;html=1;align=center;verticalAlign=middle;resizable=0;points=[];autosize=1;strokeColor=none;fillColor=none;" vertex="1" parent="IGYyDffDc0GSXXD-Tj02-9">
          <mxGeometry x="-20" y="60" width="80" height="30" as="geometry" />
        </mxCell>
        <mxCell id="IGYyDffDc0GSXXD-Tj02-12" value="" style="endArrow=classic;html=1;rounded=0;exitX=0.008;exitY=0.489;exitDx=0;exitDy=0;exitPerimeter=0;entryX=0.999;entryY=0.529;entryDx=0;entryDy=0;entryPerimeter=0;" edge="1" parent="1" source="IGYyDffDc0GSXXD-Tj02-7" target="IGYyDffDc0GSXXD-Tj02-4">
          <mxGeometry width="50" height="50" relative="1" as="geometry">
            <mxPoint x="340" y="180" as="sourcePoint" />
            <mxPoint x="390" y="130" as="targetPoint" />
          </mxGeometry>
        </mxCell>
        <mxCell id="IGYyDffDc0GSXXD-Tj02-13" value="" style="endArrow=classic;html=1;rounded=0;exitX=1.028;exitY=0.499;exitDx=0;exitDy=0;exitPerimeter=0;entryX=1.001;entryY=0.398;entryDx=0;entryDy=0;entryPerimeter=0;" edge="1" parent="1" source="IGYyDffDc0GSXXD-Tj02-10" target="IGYyDffDc0GSXXD-Tj02-3">
          <mxGeometry width="50" height="50" relative="1" as="geometry">
            <mxPoint x="340" y="180" as="sourcePoint" />
            <mxPoint x="320" y="20" as="targetPoint" />
            <Array as="points">
              <mxPoint x="320" y="220" />
              <mxPoint x="320" y="97" />
            </Array>
          </mxGeometry>
        </mxCell>
      </root>
    </mxGraphModel>
  </diagram>
</mxfile>
